<svg id="Layer_1" data-name="Layer 1" xmlns="http://www.w3.org/2000/svg" viewBox="0 0 154.92 253.36"><defs><style>.cls-1{fill:#ff7400;}</style></defs><title>logo</title><path class="cls-1" d="M119.73,118.37c-4.62,18.07,15.12,33.77,33.77,33.77a33.77,33.77,0,0,0,32.94-26.43,77,77,0,0,1,19.24,43.77q.38,3.79.38,7.69A77.46,77.46,0,1,1,61.14,139.24l-.1.07a3.76,3.76,0,0,1,.25-.31c3.53-6.2,17.15-23.56,42.89-57C131,47.15,122.45,1.27,122.45,1.27s32.47,31.57,32.14,53.38C154,90.41,124.23,100.78,119.73,118.37Z" transform="translate(-51.14 -1.27)"/></svg>